<?xml version="1.0" standalone="no"?>
<svg viewBox="0 0 200 200" xmlns="http://www.w3.org/2000/svg">
  <path fill="#D0E2FF" d="M41.8,-71.7C55,-64.8,67,-55.2,74.2,-42.8C81.3,-30.4,83.8,-15.2,78.9,-2.8C74,9.6,61.8,19.1,54.7,31.7C47.7,44.3,45.6,59.9,37.4,64.2C29.1,68.5,14.5,61.3,0.3,60.8C-13.9,60.3,-27.9,66.3,-41.8,65.4C-55.8,64.4,-69.8,56.4,-75.7,44.3C-81.6,32.3,-79.5,16.1,-77,1.4C-74.6,-13.3,-71.9,-26.6,-64.1,-35.4C-56.2,-44.1,-43.2,-48.2,-31.7,-56C-20.2,-63.8,-10.1,-75.1,2.1,-78.8C14.3,-82.5,28.7,-78.5,41.8,-71.7Z" transform="translate(100 100)" />
</svg>
